<?xml version="1.0" encoding="UTF-8" standalone="no"?>
<svg
   xmlns:dc="http://purl.org/dc/elements/1.1/"
   xmlns:cc="http://creativecommons.org/ns#"
   xmlns:rdf="http://www.w3.org/1999/02/22-rdf-syntax-ns#"
   xmlns:svg="http://www.w3.org/2000/svg"
   xmlns="http://www.w3.org/2000/svg"
   xmlns:xlink="http://www.w3.org/1999/xlink"
   xmlns:sodipodi="http://sodipodi.sourceforge.net/DTD/sodipodi-0.dtd"
   xmlns:inkscape="http://www.inkscape.org/namespaces/inkscape"
   width="55.053097mm"
   height="107.33446mm"
   viewBox="0 0 55.053098 107.33445"
   version="1.1"
   id="svg5440"
   inkscape:version="1.0.2 (394de47547, 2021-03-26)"
   sodipodi:docname="rna.svg">
  <defs
     id="defs5434">
    <linearGradient
       inkscape:collect="always"
       xlink:href="#linearGradient3926"
       id="linearGradient4868"
       gradientUnits="userSpaceOnUse"
       gradientTransform="translate(28.549526,-71.343381)"
       x1="-162.69479"
       y1="1604.1919"
       x2="-129.68776"
       y2="1583.4702" />
    <linearGradient
       inkscape:collect="always"
       id="linearGradient3926">
      <stop
         style="stop-color:#0f6798;stop-opacity:1"
         offset="0"
         id="stop3922" />
      <stop
         style="stop-color:#00a9af;stop-opacity:1"
         offset="1"
         id="stop3924" />
    </linearGradient>
    <linearGradient
       inkscape:collect="always"
       xlink:href="#linearGradient3926"
       id="linearGradient4870"
       gradientUnits="userSpaceOnUse"
       gradientTransform="matrix(-1,0,0,1,-263.83126,-92.483181)"
       x1="-162.69479"
       y1="1604.1919"
       x2="-129.68776"
       y2="1583.4702" />
    <linearGradient
       inkscape:collect="always"
       xlink:href="#linearGradient3926"
       id="linearGradient4033"
       gradientUnits="userSpaceOnUse"
       gradientTransform="matrix(-1,0,0,1,-263.83126,-134.76278)"
       x1="-162.69479"
       y1="1604.1919"
       x2="-129.68776"
       y2="1583.4702" />
    <linearGradient
       inkscape:collect="always"
       xlink:href="#linearGradient3926"
       id="linearGradient4029"
       gradientUnits="userSpaceOnUse"
       gradientTransform="translate(28.549526,-113.62298)"
       x1="-162.69479"
       y1="1604.1919"
       x2="-129.68776"
       y2="1583.4702" />
    <linearGradient
       inkscape:collect="always"
       xlink:href="#linearGradient3926"
       id="linearGradient4872"
       gradientUnits="userSpaceOnUse"
       gradientTransform="matrix(-1,0,0,1,-263.83126,-7.923981)"
       x1="-162.69479"
       y1="1604.1919"
       x2="-129.68776"
       y2="1583.4702" />
    <linearGradient
       inkscape:collect="always"
       xlink:href="#linearGradient3926"
       id="linearGradient4874"
       gradientUnits="userSpaceOnUse"
       gradientTransform="matrix(-1,0,0,1,-263.83126,-50.203581)"
       x1="-162.69479"
       y1="1604.1919"
       x2="-129.68776"
       y2="1583.4702" />
    <linearGradient
       inkscape:collect="always"
       xlink:href="#linearGradient3926"
       id="linearGradient3986"
       gradientUnits="userSpaceOnUse"
       gradientTransform="translate(28.549526,-29.063781)"
       x1="-162.69479"
       y1="1604.1919"
       x2="-129.68776"
       y2="1583.4702" />
    <rect
       x="-251.68877"
       y="1472.0082"
       width="49.521973"
       height="48.716785"
       id="rect4057-8" />
    <rect
       x="-251.68877"
       y="1472.0082"
       width="49.521973"
       height="48.716785"
       id="rect5379" />
    <rect
       x="-251.68877"
       y="1472.0082"
       width="49.521973"
       height="48.716785"
       id="rect4071-9" />
    <rect
       x="-251.68877"
       y="1472.0082"
       width="49.521973"
       height="48.716785"
       id="rect5382" />
    <rect
       x="-251.68877"
       y="1472.0082"
       width="49.521973"
       height="48.716785"
       id="rect4099-7" />
    <rect
       x="-251.68877"
       y="1472.0082"
       width="49.521973"
       height="48.716785"
       id="rect5385" />
    <rect
       x="-251.68877"
       y="1472.0082"
       width="49.521973"
       height="48.716785"
       id="rect4105-3" />
    <rect
       x="-251.68877"
       y="1472.0082"
       width="49.521973"
       height="48.716785"
       id="rect5388" />
    <rect
       x="-251.68877"
       y="1472.0082"
       width="49.521973"
       height="48.716785"
       id="rect4111-6" />
    <rect
       x="-251.68877"
       y="1472.0082"
       width="49.521973"
       height="48.716785"
       id="rect5391" />
    <rect
       x="-251.68877"
       y="1472.0082"
       width="49.521973"
       height="48.716785"
       id="rect4057-3-1" />
    <rect
       x="-251.68877"
       y="1472.0082"
       width="49.521973"
       height="48.716785"
       id="rect5394" />
    <linearGradient
       inkscape:collect="always"
       xlink:href="#linearGradient3926"
       id="linearGradient6167"
       gradientUnits="userSpaceOnUse"
       gradientTransform="translate(28.549526,-71.343381)"
       x1="-162.69479"
       y1="1604.1919"
       x2="-129.68776"
       y2="1583.4702" />
    <linearGradient
       inkscape:collect="always"
       xlink:href="#linearGradient3926"
       id="linearGradient6169"
       gradientUnits="userSpaceOnUse"
       gradientTransform="matrix(-1,0,0,1,-263.83126,-92.483181)"
       x1="-162.69479"
       y1="1604.1919"
       x2="-129.68776"
       y2="1583.4702" />
    <linearGradient
       inkscape:collect="always"
       xlink:href="#linearGradient3926"
       id="linearGradient6171"
       gradientUnits="userSpaceOnUse"
       gradientTransform="matrix(-1,0,0,1,-263.83126,-7.923981)"
       x1="-162.69479"
       y1="1604.1919"
       x2="-129.68776"
       y2="1583.4702" />
  </defs>
  <sodipodi:namedview
     id="base"
     pagecolor="#ffffff"
     bordercolor="#666666"
     borderopacity="1.0"
     inkscape:pageopacity="0.0"
     inkscape:pageshadow="2"
     inkscape:zoom="0.7"
     inkscape:cx="-234.92463"
     inkscape:cy="265.94451"
     inkscape:document-units="mm"
     inkscape:current-layer="layer1"
     inkscape:document-rotation="0"
     showgrid="false"
     fit-margin-top="0"
     fit-margin-left="0"
     fit-margin-right="0"
     fit-margin-bottom="0"
     inkscape:window-width="1685"
     inkscape:window-height="752"
     inkscape:window-x="50"
     inkscape:window-y="114"
     inkscape:window-maximized="0" />
  <metadata
     id="metadata5437">
    <rdf:RDF>
      <cc:Work
         rdf:about="">
        <dc:format>image/svg+xml</dc:format>
        <dc:type
           rdf:resource="http://purl.org/dc/dcmitype/StillImage" />
        <dc:title></dc:title>
      </cc:Work>
    </rdf:RDF>
  </metadata>
  <g
     inkscape:label="Calque 1"
     inkscape:groupmode="layer"
     id="layer1"
     transform="translate(-117.61626,-54.433969)">
    <g
       id="g4214"
       transform="rotate(-15,-5371.5526,-423.99543)">
      <g
         id="g4252">
        <path
           style="opacity:1;fill:url(#linearGradient6167);fill-opacity:1;stroke:none;stroke-width:0.264583px;stroke-linecap:butt;stroke-linejoin:miter;stroke-opacity:1"
           d="m -134.14527,1535.9151 -1e-5,-5.2917 c 0,0 -0.26458,-2.6458 5.29479,-5.3354 4.9101,-2.3755 21.16355,-9.2167 25.13432,-13.1844 2.64634,-2.6443 2.57971,-2.62 2.57971,-2.62 v 5.2917 c 0,0 0,2.6458 -5.23828,5.2914 -5.28098,2.6671 -21.15595,9.2338 -25.11407,13.2071 -2.64379,2.654 -2.65646,2.6413 -2.65646,2.6413 z"
           id="path4001"
           sodipodi:nodetypes="ccssccssc"
           transform="matrix(0.76939815,0,0,0.76939815,-90.038052,346.23423)" />
        <path
           style="opacity:1;fill:url(#linearGradient6169);fill-opacity:1;stroke:none;stroke-width:0.264583px;stroke-linecap:butt;stroke-linejoin:miter;stroke-opacity:1"
           d="m -101.13647,1514.7753 1e-5,-5.2917 c 0,0 0.26458,-2.6458 -5.29479,-5.3354 -4.9101,-2.3755 -21.16355,-9.2167 -25.13432,-13.1844 -2.64634,-2.6443 -2.57971,-2.62 -2.57971,-2.62 v 5.2917 c 0,0 0,2.6458 5.23828,5.2914 5.28098,2.6671 21.15595,9.2338 25.11407,13.2071 2.64379,2.654 2.65646,2.6413 2.65646,2.6413 z"
           id="path4017"
           sodipodi:nodetypes="ccssccssc"
           transform="matrix(0.76939815,0,0,0.76939815,-90.038052,346.23423)" />
        <g
           id="g4088"
           transform="matrix(0.76939815,0,0,0.76939815,-90.038052,346.23423)">
          <path
             style="opacity:1;fill:url(#linearGradient4033);fill-opacity:1;stroke:none;stroke-width:0.264583px;stroke-linecap:butt;stroke-linejoin:miter;stroke-opacity:1"
             d="m -101.13647,1472.4957 1e-5,-5.2917 c 0,0 0.26458,-2.6458 -5.29479,-5.3354 -4.9101,-2.3755 -21.16355,-9.2167 -25.13432,-13.1844 -2.64634,-2.6443 -2.57971,-2.62 -2.57971,-2.62 v 5.2917 c 0,0 0,2.6458 5.23828,5.2914 5.28098,2.6671 21.15595,9.2338 25.11407,13.2071 2.64379,2.654 2.65646,2.6413 2.65646,2.6413 z"
             id="path4011"
             sodipodi:nodetypes="ccssccssc" />
        </g>
        <g
           id="g4093"
           transform="matrix(0.76939815,0,0,0.76939815,-90.038052,346.23423)">
          <path
             style="opacity:1;fill:url(#linearGradient4029);fill-opacity:1;stroke:none;stroke-width:0.264583px;stroke-linecap:butt;stroke-linejoin:miter;stroke-opacity:1"
             d="m -134.14527,1493.6355 -1e-5,-5.2917 c 0,0 -0.26458,-2.6458 5.29479,-5.3354 4.9101,-2.3755 21.16355,-9.2167 25.13432,-13.1844 2.64634,-2.6443 2.57971,-2.62 2.57971,-2.62 v 5.2917 c 0,0 0,2.6458 -5.23828,5.2914 -5.28098,2.6671 -21.15595,9.2338 -25.11407,13.2071 -2.64379,2.654 -2.65646,2.6413 -2.65646,2.6413 z"
             id="path4019"
             sodipodi:nodetypes="ccssccssc"
             transform="translate(-1.3072377e-6)" />
        </g>
        <g
           id="g4152"
           transform="matrix(0.76939815,0,0,0.76939815,-90.038052,346.23423)">
          <path
             style="opacity:1;fill:url(#linearGradient4870);fill-opacity:1;stroke:none;stroke-width:0.264583px;stroke-linecap:butt;stroke-linejoin:miter;stroke-opacity:1"
             d="m -101.13647,1514.7753 1e-5,-5.2917 c 0,0 0.26458,-2.6458 -5.29479,-5.3354 -4.9101,-2.3755 -21.16355,-9.2167 -25.13432,-13.1844 -2.64634,-2.6443 -2.57971,-2.62 -2.57971,-2.62 v 5.2917 c 0,0 0,2.6458 5.23828,5.2914 5.28098,2.6671 21.15595,9.2338 25.11407,13.2071 2.64379,2.654 2.65646,2.6413 2.65646,2.6413 z"
             id="path4021"
             sodipodi:nodetypes="ccssccssc"
             transform="translate(-1.3072377e-6)" />
        </g>
        <g
           id="g4157"
           transform="matrix(0.76939815,0,0,0.76939815,-90.038052,346.23423)">
          <path
             style="opacity:1;fill:url(#linearGradient4868);fill-opacity:1;stroke:none;stroke-width:0.264583px;stroke-linecap:butt;stroke-linejoin:miter;stroke-opacity:1"
             d="m -134.14527,1535.9151 -1e-5,-5.2917 c 0,0 -0.26458,-2.6458 5.29479,-5.3354 4.9101,-2.3755 21.16355,-9.2167 25.13432,-13.1844 2.64634,-2.6443 2.57971,-2.62 2.57971,-2.62 v 5.2917 c 0,0 0,2.6458 -5.23828,5.2914 -5.28098,2.6671 -21.15595,9.2338 -25.11407,13.2071 -2.64379,2.654 -2.65646,2.6413 -2.65646,2.6413 z"
             id="path4023"
             sodipodi:nodetypes="ccssccssc"
             transform="translate(-1.3072377e-6)" />
        </g>
        <path
           style="opacity:1;fill:url(#linearGradient6171);fill-opacity:1;stroke:none;stroke-width:0.264583px;stroke-linecap:butt;stroke-linejoin:miter;stroke-opacity:1"
           d="m -101.13647,1599.3345 1e-5,-5.2917 c 0,0 0.26458,-2.6458 -5.29479,-5.3354 -4.9101,-2.3755 -21.16355,-9.2167 -25.13432,-13.1844 -2.64634,-2.6443 -2.57971,-2.62 -2.57971,-2.62 v 5.2917 c 0,0 0,2.6458 5.23828,5.2914 5.28098,2.6671 21.15595,9.2338 25.11407,13.2071 2.64379,2.654 2.65646,2.6413 2.65646,2.6413 z"
           id="path3935"
           sodipodi:nodetypes="ccssccssc"
           transform="matrix(0.76939815,0,0,0.76939815,-90.038052,346.23423)" />
        <g
           id="g4162"
           transform="matrix(0.76939815,0,0,0.76939815,-90.038052,346.23423)">
          <path
             style="opacity:1;fill:url(#linearGradient4874);fill-opacity:1;stroke:none;stroke-width:0.264583px;stroke-linecap:butt;stroke-linejoin:miter;stroke-opacity:1"
             d="m -101.13647,1557.0549 1e-5,-5.2917 c 0,0 0.26458,-2.6458 -5.29479,-5.3354 -4.9101,-2.3755 -21.16355,-9.2167 -25.13432,-13.1844 -2.64634,-2.6443 -2.57971,-2.62 -2.57971,-2.62 v 5.2917 c 0,0 0,2.6458 5.23828,5.2914 5.28098,2.6671 21.15595,9.2338 25.11407,13.2071 2.64379,2.654 2.65646,2.6413 2.65646,2.6413 z"
             id="path3971"
             sodipodi:nodetypes="ccssccssc"
             transform="translate(-1.3072377e-6)" />
        </g>
        <g
           id="g4167"
           transform="matrix(0.76939815,0,0,0.76939815,-90.038052,346.23423)">
          <path
             style="opacity:1;fill:url(#linearGradient3986);fill-opacity:1;stroke:none;stroke-width:0.264583px;stroke-linecap:butt;stroke-linejoin:miter;stroke-opacity:1"
             d="m -134.14527,1578.1947 -1e-5,-5.2917 c 0,0 -0.26458,-2.6458 5.29479,-5.3354 4.9101,-2.3755 21.16355,-9.2167 25.13432,-13.1844 2.64634,-2.6443 2.57971,-2.62 2.57971,-2.62 v 5.2917 c 0,0 0,2.6458 -5.23828,5.2914 -5.28098,2.6671 -21.15595,9.2338 -25.11407,13.2071 -2.64379,2.654 -2.65646,2.6413 -2.65646,2.6413 z"
             id="path3984"
             sodipodi:nodetypes="ccssccssc"
             transform="translate(-1.3072377e-6)" />
          <path
             style="opacity:1;fill:url(#linearGradient4872);fill-opacity:1;stroke:none;stroke-width:0.264583px;stroke-linecap:butt;stroke-linejoin:miter;stroke-opacity:1"
             d="m -101.13647,1599.3345 1e-5,-5.2917 c 0,0 0.26458,-2.6458 -5.29479,-5.3354 -4.9101,-2.3755 -21.16355,-9.2167 -25.13432,-13.1844 -2.64634,-2.6443 -2.57971,-2.62 -2.57971,-2.62 v 5.2917 c 0,0 0,2.6458 5.23828,5.2914 5.28098,2.6671 21.15595,9.2338 25.11407,13.2071 2.64379,2.654 2.65646,2.6413 2.65646,2.6413 z"
             id="path3947"
             sodipodi:nodetypes="ccssccssc" />
        </g>
        <text
           xml:space="preserve"
           id="text4055"
           style="font-style:normal;font-weight:normal;font-size:15.875px;line-height:1.25;font-family:sans-serif;white-space:pre;shape-inside:url(#rect4057-8);fill:#000000;fill-opacity:1;stroke:none;"
           transform="translate(58.089485,-4.2649196)"><tspan
             x="-251.68945"
             y="1487.0133"><tspan
               style="font-style:normal;font-variant:normal;font-weight:bold;font-stretch:normal;font-size:15.875px;font-family:Gotham;-inkscape-font-specification:'Gotham Bold';fill:#2e8b57;fill-opacity:1">A</tspan></tspan></text>
        <text
           xml:space="preserve"
           id="text4069"
           style="font-style:normal;font-weight:normal;font-size:15.875px;line-height:1.25;font-family:sans-serif;white-space:pre;shape-inside:url(#rect4071-9);fill:#000000;fill-opacity:1;stroke:none;"
           transform="translate(72.652054,11.938909)"><tspan
             x="-251.68945"
             y="1487.0133"><tspan
               style="font-style:normal;font-variant:normal;font-weight:bold;font-stretch:normal;font-size:15.875px;font-family:Gotham;-inkscape-font-specification:'Gotham Bold';fill:#4169e1;fill-opacity:1">C</tspan></tspan></text>
        <text
           xml:space="preserve"
           id="text4097"
           style="font-style:normal;font-weight:normal;font-size:15.875px;line-height:1.25;font-family:sans-serif;white-space:pre;shape-inside:url(#rect4099-7);fill:#000000;fill-opacity:1;stroke:none;"
           transform="translate(57.667474,28.228545)"><tspan
             x="-251.68945"
             y="1487.0133"><tspan
               style="font-style:normal;font-variant:normal;font-weight:bold;font-stretch:normal;font-size:15.875px;font-family:Gotham;-inkscape-font-specification:'Gotham Bold';fill:#4169e1;fill-opacity:1">C</tspan></tspan></text>
        <text
           xml:space="preserve"
           id="text4103"
           style="font-style:normal;font-weight:normal;font-size:15.875px;line-height:1.25;font-family:sans-serif;white-space:pre;shape-inside:url(#rect4105-3);fill:#000000;fill-opacity:1;stroke:none;"
           transform="translate(72.884887,44.388718)"><tspan
             x="-251.68945"
             y="1487.0133"><tspan
               style="font-style:normal;font-variant:normal;font-weight:bold;font-stretch:normal;font-size:15.875px;font-family:Gotham;-inkscape-font-specification:'Gotham Bold';fill:#b22222;fill-opacity:1">U</tspan></tspan></text>
        <text
           xml:space="preserve"
           id="text4109"
           style="font-style:normal;font-weight:normal;font-size:15.875px;line-height:1.25;font-family:sans-serif;white-space:pre;shape-inside:url(#rect4111-6);fill:#000000;fill-opacity:1;stroke:none;"
           transform="translate(57.667474,60.758391)"><tspan
             x="-251.68945"
             y="1487.0133"><tspan
               style="font-style:normal;font-variant:normal;font-weight:bold;font-stretch:normal;font-size:15.875px;font-family:Gotham;-inkscape-font-specification:'Gotham Bold';fill:#ffd700;fill-opacity:1">G</tspan></tspan></text>
        <text
           xml:space="preserve"
           id="text4055-7"
           style="font-style:normal;font-weight:normal;font-size:15.875px;line-height:1.25;font-family:sans-serif;white-space:pre;shape-inside:url(#rect4057-3-1);fill:#000000;fill-opacity:1;stroke:none;"
           transform="translate(71.677063,77.03498)"><tspan
             x="-251.68945"
             y="1487.0133"><tspan
               style="font-style:normal;font-variant:normal;font-weight:bold;font-stretch:normal;font-size:15.875px;font-family:Gotham;-inkscape-font-specification:'Gotham Bold';fill:#2e8b57;fill-opacity:1">A</tspan></tspan></text>
      </g>
    </g>
  </g>
</svg>
